<mxfile host="Electron" agent="Mozilla/5.0 (Windows NT 10.0; Win64; x64) AppleWebKit/537.36 (KHTML, like Gecko) draw.io/28.1.2 Chrome/138.0.7204.243 Electron/37.4.0 Safari/537.36" version="28.1.2">
  <diagram name="Page-1" id="L0p5QhvZgQNt1ibyMBrl">
    <mxGraphModel dx="815" dy="485" grid="1" gridSize="10" guides="1" tooltips="1" connect="1" arrows="1" fold="1" page="1" pageScale="1" pageWidth="850" pageHeight="1100" math="0" shadow="0">
      <root>
        <mxCell id="0" />
        <mxCell id="1" parent="0" />
        <mxCell id="U4IghfBn-vNY0UKqWCL6-1" value="Gold Layer" style="rounded=0;whiteSpace=wrap;html=1;fillColor=#f0a30a;strokeColor=#BD7000;fontColor=#000000;" parent="1" vertex="1">
          <mxGeometry x="355" y="210" width="120" height="60" as="geometry" />
        </mxCell>
        <mxCell id="U4IghfBn-vNY0UKqWCL6-2" value="Explore &amp;amp; Understand the Business Objects" style="rounded=0;whiteSpace=wrap;html=1;" parent="1" vertex="1">
          <mxGeometry x="193" y="300" width="180" height="50" as="geometry" />
        </mxCell>
        <mxCell id="U4IghfBn-vNY0UKqWCL6-4" value="Analyzing" style="rounded=0;whiteSpace=wrap;html=1;strokeColor=#BD7000;fillColor=#f0a30a;fontColor=#000000;" parent="1" vertex="1">
          <mxGeometry x="223" y="290" width="120" height="20" as="geometry" />
        </mxCell>
        <mxCell id="U4IghfBn-vNY0UKqWCL6-5" value="Data Integration" style="rounded=0;whiteSpace=wrap;html=1;" parent="1" vertex="1">
          <mxGeometry x="463" y="290" width="190" height="60" as="geometry" />
        </mxCell>
        <mxCell id="U4IghfBn-vNY0UKqWCL6-6" value="Coding" style="rounded=0;whiteSpace=wrap;html=1;strokeColor=#BD7000;fillColor=#f0a30a;fontColor=#000000;" parent="1" vertex="1">
          <mxGeometry x="498" y="280" width="120" height="20" as="geometry" />
        </mxCell>
        <mxCell id="U4IghfBn-vNY0UKqWCL6-7" value="Data Integration Checks" style="rounded=0;whiteSpace=wrap;html=1;" parent="1" vertex="1">
          <mxGeometry x="468" y="450" width="190" height="60" as="geometry" />
        </mxCell>
        <mxCell id="U4IghfBn-vNY0UKqWCL6-8" value="Validating" style="rounded=0;whiteSpace=wrap;html=1;strokeColor=#BD7000;fillColor=#f0a30a;fontColor=#000000;" parent="1" vertex="1">
          <mxGeometry x="503" y="440" width="120" height="20" as="geometry" />
        </mxCell>
        <mxCell id="U4IghfBn-vNY0UKqWCL6-9" value="Data Documentating&lt;div&gt;Versioning in GIT&lt;/div&gt;" style="rounded=0;whiteSpace=wrap;html=1;" parent="1" vertex="1">
          <mxGeometry x="193" y="450" width="180" height="60" as="geometry" />
        </mxCell>
        <mxCell id="U4IghfBn-vNY0UKqWCL6-10" value="Docs &amp;amp; Version" style="rounded=0;whiteSpace=wrap;html=1;strokeColor=#BD7000;fillColor=#f0a30a;fontColor=#000000;" parent="1" vertex="1">
          <mxGeometry x="228" y="440" width="120" height="20" as="geometry" />
        </mxCell>
        <mxCell id="U4IghfBn-vNY0UKqWCL6-12" value="" style="shape=flexArrow;endArrow=classic;html=1;rounded=0;fillColor=#1ba1e2;strokeColor=#006EAF;" parent="1" edge="1">
          <mxGeometry width="50" height="50" relative="1" as="geometry">
            <mxPoint x="562.71" y="360" as="sourcePoint" />
            <mxPoint x="563" y="430" as="targetPoint" />
          </mxGeometry>
        </mxCell>
        <mxCell id="U4IghfBn-vNY0UKqWCL6-13" value="" style="shape=flexArrow;endArrow=classic;html=1;rounded=0;fillColor=#1ba1e2;strokeColor=#006EAF;" parent="1" edge="1">
          <mxGeometry width="50" height="50" relative="1" as="geometry">
            <mxPoint x="462.99999999999994" y="479.71" as="sourcePoint" />
            <mxPoint x="383" y="480" as="targetPoint" />
          </mxGeometry>
        </mxCell>
        <mxCell id="U4IghfBn-vNY0UKqWCL6-14" value="" style="html=1;verticalLabelPosition=bottom;align=center;labelBackgroundColor=#ffffff;verticalAlign=top;strokeWidth=2;strokeColor=#BD7000;shadow=0;dashed=0;shape=mxgraph.ios7.icons.data;fillColor=#f0a30a;fontColor=#000000;" parent="1" vertex="1">
          <mxGeometry x="306" y="213" width="39" height="54" as="geometry" />
        </mxCell>
        <mxCell id="U4IghfBn-vNY0UKqWCL6-24" value="" style="shape=flexArrow;endArrow=classic;html=1;rounded=0;fillColor=#1ba1e2;strokeColor=#006EAF;" parent="1" edge="1">
          <mxGeometry width="50" height="50" relative="1" as="geometry">
            <mxPoint x="383" y="324.71000000000004" as="sourcePoint" />
            <mxPoint x="453" y="324.71000000000004" as="targetPoint" />
          </mxGeometry>
        </mxCell>
        <mxCell id="Pv_V5UFu_0FxCZSMY-j4-1" value="Build the Business Object" style="rounded=0;whiteSpace=wrap;html=1;" vertex="1" parent="1">
          <mxGeometry x="690" y="238" width="120" height="37" as="geometry" />
        </mxCell>
        <mxCell id="Pv_V5UFu_0FxCZSMY-j4-2" value="Choose Type Dimension vs Fact" style="rounded=0;whiteSpace=wrap;html=1;" vertex="1" parent="1">
          <mxGeometry x="690" y="300" width="120" height="37" as="geometry" />
        </mxCell>
        <mxCell id="Pv_V5UFu_0FxCZSMY-j4-3" value="Rename to Friendly Names" style="rounded=0;whiteSpace=wrap;html=1;" vertex="1" parent="1">
          <mxGeometry x="690" y="365" width="120" height="37" as="geometry" />
        </mxCell>
        <mxCell id="Pv_V5UFu_0FxCZSMY-j4-5" value="" style="endArrow=classic;html=1;rounded=0;" edge="1" parent="1">
          <mxGeometry width="50" height="50" relative="1" as="geometry">
            <mxPoint x="658" y="297" as="sourcePoint" />
            <mxPoint x="688" y="267" as="targetPoint" />
          </mxGeometry>
        </mxCell>
        <mxCell id="Pv_V5UFu_0FxCZSMY-j4-6" value="" style="endArrow=classic;html=1;rounded=0;" edge="1" parent="1">
          <mxGeometry width="50" height="50" relative="1" as="geometry">
            <mxPoint x="658" y="324.71" as="sourcePoint" />
            <mxPoint x="688" y="324.71" as="targetPoint" />
          </mxGeometry>
        </mxCell>
        <mxCell id="Pv_V5UFu_0FxCZSMY-j4-7" value="" style="endArrow=classic;html=1;rounded=0;" edge="1" parent="1">
          <mxGeometry width="50" height="50" relative="1" as="geometry">
            <mxPoint x="658" y="350" as="sourcePoint" />
            <mxPoint x="688" y="390" as="targetPoint" />
          </mxGeometry>
        </mxCell>
        <mxCell id="Pv_V5UFu_0FxCZSMY-j4-8" value="" style="shape=flexArrow;endArrow=classic;html=1;rounded=0;fillColor=#d5e8d4;strokeColor=#82b366;" edge="1" parent="1">
          <mxGeometry width="50" height="50" relative="1" as="geometry">
            <mxPoint x="749.71" y="275" as="sourcePoint" />
            <mxPoint x="750" y="300" as="targetPoint" />
          </mxGeometry>
        </mxCell>
        <mxCell id="Pv_V5UFu_0FxCZSMY-j4-9" value="" style="shape=flexArrow;endArrow=classic;html=1;rounded=0;fillColor=#d5e8d4;strokeColor=#82b366;" edge="1" parent="1">
          <mxGeometry width="50" height="50" relative="1" as="geometry">
            <mxPoint x="749.71" y="340" as="sourcePoint" />
            <mxPoint x="750" y="365" as="targetPoint" />
          </mxGeometry>
        </mxCell>
      </root>
    </mxGraphModel>
  </diagram>
</mxfile>
